<?xml version="1.0" encoding="iso-8859-1"?>
<!-- Uploaded to: SVG Repo, www.svgrepo.com, Generator: SVG Repo Mixer Tools -->
<svg fill="#000000" height="800px" width="800px" version="1.1" id="Layer_1" xmlns="http://www.w3.org/2000/svg" xmlns:xlink="http://www.w3.org/1999/xlink" 
	 viewBox="0 0 512 512" xml:space="preserve">
<g transform="translate(0 -1)">
	<g>
		<g>
			<path d="M256,188.733c-4.702,0-8.533,3.831-8.533,8.533c0,4.702,3.831,8.533,8.533,8.533c4.702,0,8.533-3.831,8.533-8.533
				C264.533,192.565,260.702,188.733,256,188.733z"/>
			<path d="M256,120.467c-4.702,0-8.533,3.831-8.533,8.533c0,4.702,3.831,8.533,8.533,8.533c4.702,0,8.533-3.831,8.533-8.533
				C264.533,124.298,260.702,120.467,256,120.467z"/>
			<path d="M256,52.2c-4.702,0-8.533,3.831-8.533,8.533c0,4.702,3.831,8.533,8.533,8.533c4.702,0,8.533-3.831,8.533-8.533
				C264.533,56.031,260.702,52.2,256,52.2z"/>
			<path d="M332.8,1h-25.6H204.8h-25.6c-4.71,0-8.533,3.823-8.533,8.533c0,4.71,3.823,8.533,8.533,8.533h17.067v230.4
				c0,4.71,3.823,8.533,8.533,8.533h25.6v204.8c-23.526,0-42.667,19.14-42.667,42.667c0,4.71,3.823,8.533,8.533,8.533h119.467
				c4.71,0,8.533-3.823,8.533-8.533c0-23.526-19.14-42.667-42.667-42.667V257h25.6c4.71,0,8.533-3.823,8.533-8.533v-230.4H332.8
				c4.71,0,8.533-3.823,8.533-8.533C341.333,4.823,337.51,1,332.8,1z M256,222.867c-14.114,0-25.6-11.486-25.6-25.6
				c0-14.114,11.486-25.6,25.6-25.6c14.114,0,25.6,11.486,25.6,25.6C281.6,211.381,270.114,222.867,256,222.867z M256,154.6
				c-14.114,0-25.6-11.486-25.6-25.6s11.486-25.6,25.6-25.6c14.114,0,25.6,11.486,25.6,25.6S270.114,154.6,256,154.6z M256,86.333
				c-14.114,0-25.6-11.486-25.6-25.6s11.486-25.6,25.6-25.6c14.114,0,25.6,11.486,25.6,25.6S270.114,86.333,256,86.333z"/>
		</g>
	</g>
</g>
</svg>